<svg xmlns="http://www.w3.org/2000/svg" viewBox="0 0 1.50 1.05" width="800" height="600">
<g stroke="black" fill="none" font-family="Arial, sans-serif">
<rect x="0.200" y="-0.700" width="0.300" height="0.450" fill="#f0f0f0" stroke="black" stroke-width="2"/>
<rect x="0.240" y="-0.660" width="0.220" height="0.370" fill="none" stroke="#0066cc" stroke-width="1.5" stroke-dasharray="5 3"/>
<circle cx="0.286" cy="-0.336" r="0.018" fill="none" stroke="black" stroke-width="1.5" />
<circle cx="0.350" cy="-0.336" r="0.018" fill="none" stroke="black" stroke-width="1.5" />
<circle cx="0.414" cy="-0.336" r="0.018" fill="none" stroke="black" stroke-width="1.5" />
<circle cx="0.307" cy="-0.593" r="0.018" fill="none" stroke="black" stroke-width="1.5" />
<circle cx="0.393" cy="-0.593" r="0.018" fill="none" stroke="black" stroke-width="1.5" />
<line x1="0.200" y1="-0.750" x2="0.500" y2="-0.750" stroke="black" stroke-width="1.5"/><polygon points="0.500,-0.750 0.470,-0.765 0.470,-0.735" fill="black"/><text x="0.350" y="-0.730" font-size="10" text-anchor="middle" dominant-baseline="middle">B = 0.30 m</text>
<line x1="0.150" y1="-0.700" x2="0.150" y2="-0.250" stroke="black" stroke-width="1.5"/><polygon points="0.150,-0.250 0.165,-0.280 0.135,-0.280" fill="black"/><text x="0.170" y="-0.475" font-size="10" text-anchor="middle" dominant-baseline="middle">H = 0.45 m</text>
<line x1="0.200" y1="-0.270" x2="0.240" y2="-0.270" stroke="black" stroke-width="1.5"/><polygon points="0.240,-0.270 0.210,-0.285 0.210,-0.255" fill="black"/><text x="0.220" y="-0.250" font-size="10" text-anchor="middle" dominant-baseline="middle">4 cm</text>
<line x1="0.460" y1="-0.270" x2="0.500" y2="-0.270" stroke="black" stroke-width="1.5"/><polygon points="0.500,-0.270 0.470,-0.285 0.470,-0.255" fill="black"/><text x="0.480" y="-0.250" font-size="10" text-anchor="middle" dominant-baseline="middle">4 cm</text>
<text x="0.120" y="-0.308" font-size="11" text-anchor="end" dominant-baseline="middle" transform="rotate(90,0.120,-0.308)">Barras Superiores</text>
<text x="0.120" y="-0.642" font-size="11" text-anchor="end" dominant-baseline="middle" transform="rotate(90,0.120,-0.642)">Barras Inferiores</text>
<polyline points="0.900,-0.327 1.076,-0.327 1.076,-0.623 0.900,-0.623 0.900,-0.327 1.076,-0.327 1.094,-0.309 1.108,-0.295 1.100,-0.287" fill="none" stroke="#0066cc" stroke-width="2" />
<polyline points="0.900,-0.623 0.882,-0.641 0.868,-0.655 0.876,-0.663" fill="none" stroke="#0066cc" stroke-width="2" />
<line x1="0.900" y1="-0.277" x2="1.076" y2="-0.277" stroke="black" stroke-width="1.5"/><polygon points="1.076,-0.277 1.046,-0.292 1.046,-0.262" fill="black"/><text x="0.988" y="-0.257" font-size="9" text-anchor="middle" dominant-baseline="middle">0.22 m</text>
<line x1="1.126" y1="-0.327" x2="1.126" y2="-0.623" stroke="black" stroke-width="1.5"/><polygon points="1.126,-0.623 1.111,-0.593 1.141,-0.593" fill="black"/><text x="1.146" y="-0.475" font-size="9" text-anchor="middle" dominant-baseline="middle">0.37 m</text>
<text x="0.988" y="-0.227" font-size="11" text-anchor="middle" dominant-baseline="middle" font-weight="bold">Estribo Ø#3</text>
<text x="0.988" y="-0.177" font-size="10" text-anchor="middle" dominant-baseline="middle">Gancho 135°</text>
<rect x="1.326" y="-0.327" width="0.350" height="0.250" fill="#e8f4f8" stroke="#b0d0e0" stroke-width="1"/>
<text x="1.376" y="-0.277" font-size="9" text-anchor="start" dominant-baseline="middle">B = 0.30 m</text>
<text x="1.376" y="-0.237" font-size="9" text-anchor="start" dominant-baseline="middle">H = 0.45 m</text>
<text x="1.376" y="-0.197" font-size="9" text-anchor="start" dominant-baseline="middle">Recubrimiento = 4 cm</text>
<text x="1.376" y="-0.157" font-size="9" text-anchor="start" dominant-baseline="middle">Estribo útil = 0.22 m x 0.37 m</text>
<text x="1.376" y="-0.117" font-size="9" text-anchor="start" dominant-baseline="middle">Gancho 135° (#3)</text>
<line x1="0.600" y1="-0.475" x2="0.800" y2="-0.475" stroke="#888" stroke-width="1" />
<text x="0.700" y="-0.455" font-size="9" text-anchor="middle" dominant-baseline="middle">Detalle</text>
</g></svg>