<?xml version="1.0" encoding="utf-8" ?>
<svg baseProfile="full" height="3010.0px" version="1.1" width="11750.0px" xmlns="http://www.w3.org/2000/svg" xmlns:ev="http://www.w3.org/2001/xml-events" xmlns:xlink="http://www.w3.org/1999/xlink"><defs /><polyline fill="none" points="0.0,0.0 9050.0,0.0 9050.0,2700.0 0.0,2700.0 0.0,0.0" stroke="#222222" stroke-width="0.5" /><polyline fill="none" points="0.0,0.0 350.0,0.0 350.0,2700.0 0.0,2700.0 0.0,0.0" stroke="#555555" stroke-width="0.5" /><polyline fill="none" points="4350.0,0.0 4700.0,0.0 4700.0,2700.0 4350.0,2700.0 4350.0,0.0" stroke="#555555" stroke-width="0.5" /><polyline fill="none" points="8700.0,0.0 9050.0,0.0 9050.0,2700.0 8700.0,2700.0 8700.0,0.0" stroke="#555555" stroke-width="0.5" /><polyline fill="none" points="175.0,-210.0 175.0,2850.0" stroke="#1f77b4" stroke-width="0.5" /><text fill="#111111" font-size="120.0px" x="170.0" y="2910.0">E1</text><polyline fill="none" points="4525.0,-210.0 4525.0,2850.0" stroke="#1f77b4" stroke-width="0.5" /><text fill="#111111" font-size="120.0px" x="4520.0" y="2910.0">E2</text><polyline fill="none" points="8875.0,-210.0 8875.0,2850.0" stroke="#1f77b4" stroke-width="0.5" /><text fill="#111111" font-size="120.0px" x="8870.0" y="2910.0">E3</text><line stroke="#d62728" stroke-width="1.0" x1="100.0" x2="7400.0" y1="2380.0" y2="2380.0" /><polyline fill="none" points="100.0,2380.0 125.04249999999999,2340.0 171.55,2300.0" stroke="#d62728" stroke-width="1.0" /><text fill="#111111" font-size="120.0px" x="146.5075" y="2288.0">0.16</text><line stroke="#888" stroke-width="1" x1="800.0" x2="1200.0" y1="2310.0" y2="2310.0" /><text fill="#555" font-size="10px" x="1000.0" y="2305.0">0.40</text><text dominant-baseline="text-before-edge" fill="#111111" font-size="120.0px" text-anchor="middle" x="3750.0" y="2452.0">2Φ#5 L=7.50m</text><line stroke="#d62728" stroke-width="1.0" x1="500.0" x2="8500.0" y1="2290.0" y2="2290.0" /><text dominant-baseline="text-before-edge" fill="#111111" font-size="120.0px" text-anchor="middle" x="4500.0" y="2362.0">2Φ#5 L=7.50m</text><line stroke="#d62728" stroke-width="1.0" x1="200.0" x2="7200.0" y1="320.0" y2="320.0" /><polyline fill="none" points="200.0,320.0 225.0425,360.0 271.55,400.0" stroke="#d62728" stroke-width="1.0" /><text fill="#111111" font-size="120.0px" x="246.5075" y="412.0">0.16</text><line stroke="#888" stroke-width="1" x1="800.0" x2="1200.0" y1="390.0" y2="390.0" /><text fill="#555" font-size="10px" x="1000.0" y="385.0">0.40</text><text dominant-baseline="text-before-edge" fill="#111111" font-size="120.0px" text-anchor="middle" x="3700.0" y="212.0">2Φ#5 L=7.00m</text><polyline fill="none" points="350.0,1350.0 4350.0,1350.0" stroke="#ff7f0e" stroke-width="1.0" /><polyline fill="none" points="4700.0,1350.0 8700.0,1350.0" stroke="#ff7f0e" stroke-width="1.0" /><polyline fill="none" points="350.0,1250.0 350.0,1450.0" stroke="#ff7f0e" stroke-width="1.0" /><polyline fill="none" points="2500.0,1250.0 2500.0,1450.0" stroke="#ff7f0e" stroke-width="1.0" /><polyline fill="none" points="4350.0,1250.0 4350.0,1450.0" stroke="#ff7f0e" stroke-width="1.0" /><polyline fill="none" points="4700.0,1250.0 4700.0,1450.0" stroke="#ff7f0e" stroke-width="1.0" /><polyline fill="none" points="8700.0,1250.0 8700.0,1450.0" stroke="#ff7f0e" stroke-width="1.0" /><text fill="#ff7f0e" font-size="72.0px" text-anchor="middle" x="1425.0" y="1150.0">20E C/10</text><text fill="#ff7f0e" font-size="72.0px" text-anchor="middle" x="3425.0" y="1150.0">12E C/15</text><text fill="#ff7f0e" font-size="72.0px" text-anchor="middle" x="6700.0" y="1150.0">26E C/15</text><line stroke="#888" stroke-width="1" x1="0.0" x2="9050.0" y1="-200.0" y2="-200.0" /><text fill="#555" font-size="10px" x="4525.0" y="-205.0">9.05</text><line stroke="#888" stroke-width="1" x1="350.0" x2="4350.0" y1="-400.0" y2="-400.0" /><text fill="#555" font-size="10px" x="2350.0" y="-405.0">4.00</text><line stroke="#888" stroke-width="1" x1="4700.0" x2="8700.0" y1="-400.0" y2="-400.0" /><text fill="#555" font-size="10px" x="6700.0" y="-405.0">4.00</text><line stroke="#888" stroke-width="1" x1="0.0" x2="350.0" y1="-400.0" y2="-400.0" /><text fill="#555" font-size="10px" x="175.0" y="-405.0">0.35</text><line stroke="#888" stroke-width="1" x1="4350.0" x2="4700.0" y1="-400.0" y2="-400.0" /><text fill="#555" font-size="10px" x="4525.0" y="-405.0">0.35</text><line stroke="#888" stroke-width="1" x1="8700.0" x2="9050.0" y1="-400.0" y2="-400.0" /><text fill="#555" font-size="10px" x="8875.0" y="-405.0">0.35</text><line stroke="#888" stroke-width="1" x1="175.0" x2="4525.0" y1="2900.0" y2="2900.0" /><text fill="#555" font-size="10px" x="2350.0" y="2895.0">4.35</text><line stroke="#888" stroke-width="1" x1="4525.0" x2="8875.0" y1="2900.0" y2="2900.0" /><text fill="#555" font-size="10px" x="6700.0" y="2895.0">4.35</text><polyline fill="none" points="-2250.0,0.0 0.0,0.0 0.0,2700.0 -2250.0,2700.0 -2307.4025148547635,2688.581929876693 -2356.0660171779823,2656.0660171779823 -2388.581929876693,2607.4025148547635 -2400.0,2550.0 -2400.0,150.0 -2388.581929876693,92.59748514523655 -2356.0660171779823,43.93398282201788 -2307.4025148547635,11.418070123306961 -2250.0,0.0" stroke="#222222" stroke-width="0.5" /><polyline fill="none" points="-2250.0,70.0 -150.0,70.0 -119.3853254107928,76.08963739909707 -93.43145750507621,93.43145750507618 -76.08963739909706,119.38532541079283 -70.0,149.99999999999997 -70.0,2550.0 -76.08963739909706,2580.614674589207 -93.4314575050762,2606.568542494924 -119.38532541079282,2623.9103626009028 -150.0,2630.0 -2250.0,2630.0 -2280.614674589207,2623.9103626009028 -2306.568542494924,2606.568542494924 -2323.9103626009028,2580.614674589207 -2330.0,2550.0 -2330.0,150.0 -2323.9103626009028,119.38532541079283 -2306.568542494924,93.4314575050762 -2280.614674589207,76.08963739909706 -2250.0,70.0" stroke="#222222" stroke-width="0.5" /><text fill="#111111" font-size="120.0px" text-anchor="middle" x="-1200.0" y="2380.0">VIGA-E3-12</text><text fill="#111111" font-size="120.0px" text-anchor="middle" x="-1200.0" y="1980.0">Nivel: 3.52</text><text fill="#111111" font-size="120.0px" text-anchor="middle" x="-1200.0" y="500.0">b=0.30 h=0.45</text><text fill="#111111" font-size="120.0px" text-anchor="middle" x="-1200.0" y="250.0">Cantidad: 1</text><polyline fill="none" points="9050.0,0.0 11500.0,0.0 11557.402514854764,11.418070123307018 11606.066017177982,43.93398282201785 11638.581929876693,92.59748514523656 11650.0,149.99999999999997 11650.0,2550.0 11638.581929876693,2607.4025148547635 11606.066017177982,2656.0660171779823 11557.402514854764,2688.581929876693 11500.0,2700.0 11500.0,2700.0 9050.0,2700.0" stroke="#222222" stroke-width="0.5" /><polyline fill="none" points="9200.0,70.0 11500.0,70.0 11530.614674589207,76.08963739909707 11556.568542494924,93.43145750507618 11573.910362600904,119.38532541079283 11580.0,149.99999999999997 11580.0,2550.0 11573.910362600904,2580.614674589207 11556.568542494924,2606.568542494924 11530.614674589207,2623.9103626009028 11500.0,2630.0 9200.0,2630.0 9169.385325410793,2623.9103626009028 9143.431457505076,2606.568542494924 9126.089637399096,2580.614674589207 9120.0,2550.0 9120.0,150.0 9126.089637399096,119.38532541079283 9143.431457505076,93.4314575050762 9169.385325410793,76.08963739909706 9200.0,70.0" stroke="#222222" stroke-width="0.5" /><text fill="#111111" font-size="102.0px" text-anchor="middle" x="10350.0" y="170.0">f'y=420 MPa (Grado 60)</text><text fill="#111111" font-size="102.0px" text-anchor="middle" x="10350.0" y="340.0">f'c=21 MPa (3000 psi)</text><text fill="#111111" font-size="120.0px" text-anchor="middle" x="10350.0" y="510.0">58 Flejes Ø3/8" L=1.35m</text></svg>